 http://www.shotpix.com/images/54189478150505324536.jpg

Info:
Format : AVI
Format/Info : Audio Video Interleave
File size : 731 MiB
Duration : 2h 39mn
Overall bit rate : 642 Kbps

Video
ID : 0
Format : MPEG-4 Visual
Format profile : Advanced Simple@L5
Format settings, BVOP : 2
Format settings, QPel : No
Format settings, GMC : No warppoints
Format settings, Matrix : Default (H.263)
Codec ID : XVID
Codec ID/Hint : XviD
Duration : 2h 39mn
Bit rate : 571 Kbps
Width : 608 pixels
Height : 256 pixels
Display aspect ratio : 2.40:1
Frame rate : 29.970 fps
Color space : YUV
Chroma subsampling : 4:2:0
Bit depth : 8 bits
Scan type : Progressive
Compression mode : Lossy
Bits/(Pixel*Frame) : 0.122
Stream size : 650 MiB (89%)
Writing library : XviD 1.2.1 (UTC 2008-12-04)

Audio
ID : 1
Format : MPEG Audio
Format version : Version 1
Format profile : Layer 2
Codec ID : 50
Duration : 2h 39mn
Bit rate mode : Constant
Bit rate : 64.0 Kbps
Channel(s) : 2 channels
Sampling rate : 48.0 KHz
Compression mode : Lossy
Stream size : 72.9 MiB (10%)
Alignment : Aligned on interleaves
Interleave, duration : 133 ms (4.00 video frames)
Interleave, preload duration : 216 ms

Screens: 
http://www.shotpix.com/images/44327556965908155104.png 
http://www.shotpix.com/images/87779645194628021006.png 
http://www.shotpix.com/images/92292936528650629807.png 
http://www.shotpix.com/images/20754067546908024330.png 
http://www.shotpix.com/images/70480155052504350118.png 
http://www.shotpix.com/images/33954207768488872078.png




